<svg xmlns="http://www.w3.org/2000/svg" width="39" height="39" viewBox="0 0 39 39">
  <g id="Grupo_2534" data-name="Grupo 2534" transform="translate(0.273 0.627)">
    <g id="Grupo_2543" data-name="Grupo 2543" transform="translate(-0.273 -0.273)">
      <circle id="Elipse_147" data-name="Elipse 147" cx="19.5" cy="19.5" r="19.5" transform="translate(0 -0.354)" fill="#e8a900"/>
      <g id="icon-alert-info" transform="translate(6.681 6.726)">
        <path id="icon-alert-info-2" data-name="icon-alert-info" d="M0,12.54A12.541,12.541,0,1,1,12.542,25.079,12.554,12.554,0,0,1,0,12.54Zm1.416,0A11.125,11.125,0,1,0,12.542,1.416,11.137,11.137,0,0,0,1.417,12.54ZM12.043,18.6a.693.693,0,0,1-.157-.226.744.744,0,0,1-.057-.269.722.722,0,0,1,.057-.276.706.706,0,0,1,.157-.227.7.7,0,0,1,.5-.212.826.826,0,0,1,.134.014l.135.042c.042.022.085.043.121.064a.48.48,0,0,1,.105.092.62.62,0,0,1,.157.227.722.722,0,0,1,.057.276.7.7,0,0,1-.213.5.46.46,0,0,1-.105.093c-.035.021-.078.042-.121.063a.937.937,0,0,1-.135.036.647.647,0,0,1-.138.015A.712.712,0,0,1,12.043,18.6Zm-.21-3.232V6.987a.708.708,0,0,1,1.416,0v8.377a.708.708,0,1,1-1.416,0Z" transform="translate(-0.001)" fill="#fff" stroke="rgba(0,0,0,0)" stroke-miterlimit="10" stroke-width="1"/>
      </g>
    </g>
  </g>
</svg>
